<svg xmlns="http://www.w3.org/2000/svg" width="24" height="24" viewBox="0 0 200 200" version="1.1"><g stroke="none" stroke-width="1" fill="none" fill-rule="evenodd"><rect fill="#C00" x="0" y="0" width="200" height="200"/><path d="M32 35.4L65.8 35.4 65.8 165 32 165 32 35.4ZM65.8 35.4L90 35.4 90 61.8 65.8 61.8 65.8 35.4ZM65.8 84.6L90 84.6 90 111 65.8 111 65.8 84.6ZM110.5 35.4L144.4 35.4 144.4 165 110.5 165 110.5 35.4ZM144.4 35.4L168.5 35.4 168.5 61.8 144.4 61.8 144.4 35.4ZM144.4 84.6L168.5 84.6 168.5 111 144.4 111 144.4 84.6ZM144.4 138.6L168.5 138.6 168.5 165 144.4 165 144.4 138.6Z" fill="#FFC"/></g></svg>
