<svg xmlns="http://www.w3.org/2000/svg" width="24" height="24" viewBox="0 0 240 240" version="1.1"><g stroke="none" stroke-width="1" fill="none" fill-rule="evenodd"><rect fill="#FFFFFF" x="-14" y="-14" width="260" height="264"/><g transform="translate(9.000000, 41.000000)"><g fill="#004681"><path d="M169.1 6.8C191.2 0.6 191.7 16.7 181.7 26.6 208.2 10.7 190-11.3 169.1 6.8L169.1 6.8ZM157.6 26C133.5 32.8 113.1 47 113.1 47 113.1 47 151.4 32.6 159.4 37 162.6 38.8 165.5 42.8 163.9 49.6 162.2 56.6 158.2 61.1 143.4 68.8 128.2 76.7 106.1 86.3 91.8 92 91.8 92 1.6 127 0 158.8L56.8 158.8C37.3 118.7 104.9 91.2 144.2 75.2 153.5 71.4 160.2 67.2 164.7 63.2 173.7 55 177.7 42 173.7 34 170.8 27.6 164.9 23.9 157.6 26L157.6 26Z"/></g><path d="M188.7 60.4C205.6 57.3 222.2 44 222.2 44 222.2 44 202.5 54.2 189.9 51.3 181.7 49.4 181.4 35.6 181.4 35.6 181.4 35.6 171.9 63.4 188.7 60.4L188.7 60.4ZM174.1 69.7C158.3 71.6 28.7 113 72 158.9L135.8 158.9C31.5 102.5 155.8 81.3 173.1 82.6 174.8 82.7 177.5 83.3 179.1 85 187.2 94.1 172.5 126.4 172.5 126.4 172.5 126.4 218 64.2 174.1 69.7L174.1 69.7Z" fill="#AB0535"/></g></g></svg>
