<svg xmlns="http://www.w3.org/2000/svg" width="230" height="230" viewBox="0 0 230 230" version="1.1"><defs><path d="M10 188L220.7 188 220.7 42.7 10 42.7"/></defs><g stroke="none" stroke-width="1" fill="none" fill-rule="evenodd"><rect fill="#50C0E3" x="0" y="0" width="230" height="230"/><mask fill="white"/><path d="M220.7 109.7C213.3 111 202.6 109.7 196.9 107.3 208.7 106.3 216.7 100.9 219.8 93.6 215.5 96.2 202.3 99.1 195 96.4 194.6 94.7 194.2 93 193.8 91.5 188.2 71.1 169.1 54.5 149.1 56.5 150.8 55.9 152.4 55.3 154 54.7 156.2 53.9 169.2 51.8 167.1 47.3 165.4 43.2 149.6 50.3 146.6 51.2 150.6 49.7 157.1 47.2 157.8 42.7 151.7 43.5 145.8 46.4 141.3 50.5 142.9 48.7 144.2 46.6 144.4 44.2 128.4 54.5 119 75.2 111.5 95.2 105.5 89.4 100.2 84.9 95.5 82.4 82.2 75.2 66.4 67.8 41.4 58.5 40.7 66.8 45.5 77.8 59.5 85.1 56.4 84.7 50.9 85.6 46.5 86.6 48.3 96.1 54.2 103.9 70.1 107.6 62.8 108.1 59.1 109.8 55.7 113.3 59 119.9 67.1 127.7 81.6 126.1 65.4 133 75 146 88.2 144 65.7 167.3 30.3 165.5 10 146.1 63.1 218.5 178.4 188.9 195.6 119.2 208.5 119.3 216 114.8 220.7 109.7" fill="#FFFFFF" mask="url(#mask-2)"/></g></svg>
