<?xml version="1.0" encoding="UTF-8" standalone="no"?>
<svg width="53px" height="53px" viewBox="0 0 53 53" version="1.1" xmlns="http://www.w3.org/2000/svg" xmlns:xlink="http://www.w3.org/1999/xlink" xmlns:sketch="http://www.bohemiancoding.com/sketch/ns">
    <!-- Generator: Sketch 3.0.4 (8054) - http://www.bohemiancoding.com/sketch -->
    <title>Slice 2</title>
    <desc>Created with Sketch.</desc>
    <defs></defs>
    <g id="Page-1" stroke="none" stroke-width="1" fill="none" fill-rule="evenodd" sketch:type="MSPage">
        <g id="parkrun" sketch:type="MSLayerGroup">
            <g id="Layer_1" sketch:type="MSShapeGroup">
                <g id="mini">
                    <path d="M26.5,0 C11.864,0 0,11.864 0,26.5 C0,41.136 11.864,53 26.5,53 C41.136,53 53,41.135 53,26.5 C53,11.865 41.136,0 26.5,0 L26.5,0 L26.5,0 Z" id="bg" fill="#8B8D09"></path>
                    <path d="M26.5,21.525 C25.811,21.525 25.25,22.092 25.25,22.789 L25.25,41.119 C25.25,41.818 25.81,42.386 26.5,42.386 C27.188,42.386 27.748,41.819 27.748,41.119 L27.748,36.182 C27.748,34.681 28.445,33.612 29.817,33.003 C30.895,32.523 32.014,32.515 32.061,32.515 C32.748,32.515 33.309,31.948 33.309,31.249 C33.309,30.55 32.751,29.982 32.061,29.982 C30.32,29.982 28.871,30.394 27.748,31.214 L27.748,22.787 C27.748,22.091 27.19,21.525 26.5,21.525 M27.204,10.616 C23.632,10.617 20.725,13.565 20.724,17.187 L20.725,17.31 C17.167,18.018 14.602,21.17 14.602,24.866 C14.602,27.062 15.533,29.162 17.158,30.63 C17.539,30.962 19.581,32.632 22.35,32.632 L22.447,32.632 L22.566,32.641 L22.736,32.626 L22.849,32.606 C23.405,32.472 23.795,31.975 23.795,31.394 C23.795,30.705 23.243,30.143 22.566,30.143 L22.03,30.143 C19.209,30.05 16.996,27.729 16.99,24.866 C16.988,22.02 19.273,19.654 22.081,19.59 L22.862,19.57 C23.029,19.566 23.184,19.487 23.286,19.354 C23.389,19.221 23.427,19.05 23.39,18.885 L23.217,18.109 C23.147,17.795 23.112,17.485 23.112,17.188 C23.116,14.905 24.951,13.044 27.202,13.04 C29.453,13.044 31.287,14.906 31.291,17.187 C31.291,17.4 31.272,17.619 31.235,17.856 C31.217,17.965 31.232,18.074 31.277,18.175 C31.399,18.719 31.883,19.111 32.433,19.111 C32.993,19.111 33.478,18.712 33.595,18.159 L33.617,18.058 C33.659,17.754 33.679,17.47 33.679,17.186 C33.679,15.435 33.006,13.788 31.789,12.549 C30.568,11.304 28.938,10.617 27.204,10.616" id="logo" fill="#FFFFFF"></path>
                </g>
            </g>
        </g>
    </g>
</svg>