<?xml version="1.0" encoding="UTF-8" standalone="no"?>
<svg width="240px" height="240px" viewBox="0 0 240 240" version="1.1" xmlns="http://www.w3.org/2000/svg" xmlns:xlink="http://www.w3.org/1999/xlink" xmlns:sketch="http://www.bohemiancoding.com/sketch/ns">
    <!-- Generator: Sketch 3.0.4 (8054) - http://www.bohemiancoding.com/sketch -->
    <title>runbritain 2</title>
    <desc>Created with Sketch.</desc>
    <defs></defs>
    <g id="Page-1" stroke="none" stroke-width="1" fill="none" fill-rule="evenodd" sketch:type="MSPage">
        <rect id="Rectangle-1" fill="#FFFFFF" sketch:type="MSShapeGroup" x="-14" y="-14" width="260" height="264"></rect>
        <g id="ui_sponsor_run-britain.min" sketch:type="MSLayerGroup" transform="translate(9.000000, 41.000000)">
            <g id="Group" fill="#004681" sketch:type="MSShapeGroup">
                <path d="M169.1,6.8 C191.2,0.6 191.7,16.7 181.7,26.6 C208.2,10.7 190,-11.3 169.1,6.8 L169.1,6.8 Z M157.6,26 C133.5,32.8 113.1,47 113.1,47 C113.1,47 151.4,32.6 159.4,37 C162.6,38.8 165.5,42.8 163.9,49.6 C162.2,56.6 158.2,61.1 143.4,68.8 C128.2,76.7 106.1,86.3 91.8,92 C91.8,92 1.6,127 -1.42108547e-14,158.8 L56.8,158.8 C37.3,118.7 104.9,91.2 144.2,75.2 C153.5,71.4 160.2,67.2 164.7,63.2 C173.7,55 177.7,42 173.7,34 C170.8,27.6 164.9,23.9 157.6,26 L157.6,26 Z" id="Shape"></path>
            </g>
            <path d="M188.7,60.4 C205.6,57.3 222.2,44 222.2,44 C222.2,44 202.5,54.2 189.9,51.3 C181.7,49.4 181.4,35.6 181.4,35.6 C181.4,35.6 171.9,63.4 188.7,60.4 L188.7,60.4 Z M174.1,69.7 C158.3,71.6 28.7,113 72,158.9 L135.8,158.9 C31.5,102.5 155.8,81.3 173.1,82.6 C174.8,82.7 177.5,83.3 179.1,85 C187.2,94.1 172.5,126.4 172.5,126.4 C172.5,126.4 218,64.2 174.1,69.7 L174.1,69.7 Z" id="Shape" fill="#AB0535" sketch:type="MSShapeGroup"></path>
        </g>
    </g>
</svg>