<?xml version="1.0" encoding="UTF-8" standalone="no"?>
<svg width="201px" height="201px" viewBox="0 0 201 201" version="1.1" xmlns="http://www.w3.org/2000/svg" xmlns:xlink="http://www.w3.org/1999/xlink" xmlns:sketch="http://www.bohemiancoding.com/sketch/ns">
    <!-- Generator: Sketch 3.0.4 (8054) - http://www.bohemiancoding.com/sketch -->
    <title>strava-logo-orange 2svg</title>
    <desc>Created with Sketch.</desc>
    <defs></defs>
    <g id="Page-1" stroke="none" stroke-width="1" fill="none" fill-rule="evenodd" sketch:type="MSPage">
        <g id="strava-icon" sketch:type="MSLayerGroup">
            <g id="Group" sketch:type="MSShapeGroup">
                <rect id="Rectangle-1" fill="#FF5700" x="0" y="0" width="201" height="201"></rect>
                <path d="M100,-0.3 C44.7,-0.3 -0.3,44.7 -0.3,100 C-0.3,155.3 44.7,200.3 100,200.3 C155.3,200.3 200.3,155.3 200.3,100 C200.3,44.7 155.3,-0.3 100,-0.3 L100,-0.3 Z" id="Shape" fill="#FF5700"></path>
                <g transform="translate(56.000000, 38.000000)" id="Shape" fill="#FFFFFF">
                    <path d="M61.4,124.3 L34.3,71.1 L50.4,71.1 L61.4,92.6 L72.2,71.1 L88.3,71.1 L61.4,124.3"></path>
                    <path d="M35.9,42.2 L50.6,71.2 L72.1,71.2 L35.7,-0.3 L-0.3,71.2 L21.3,71.2 L35.9,42.2 L35.9,42.2 Z"></path>
                </g>
            </g>
        </g>
    </g>
</svg>