<?xml version="1.0" encoding="UTF-8" standalone="no"?>
<svg width="230px" height="230px" viewBox="0 0 230 230" version="1.1" xmlns="http://www.w3.org/2000/svg" xmlns:xlink="http://www.w3.org/1999/xlink" xmlns:sketch="http://www.bohemiancoding.com/sketch/ns">
    <!-- Generator: Sketch 3.0.4 (8054) - http://www.bohemiancoding.com/sketch -->
    <title>Slice 2</title>
    <desc>Created with Sketch.</desc>
    <defs>
        <path id="path-1" d="M10,188 L220.73,188 L220.73,42.686 L10,42.686"></path>
    </defs>
    <g id="Page-1" stroke="none" stroke-width="1" fill="none" fill-rule="evenodd" sketch:type="MSPage">
        <g id="twitter_newbird_blue" sketch:type="MSLayerGroup">
            <rect id="Rectangle-1" fill="#50C0E3" sketch:type="MSShapeGroup" x="0" y="0" width="230" height="230"></rect>
            <mask id="mask-2" sketch:name="Clip 2" fill="white">
                <use xlink:href="#path-1"></use>
            </mask>
            <g id="Clip-2"></g>
            <path d="M220.73,109.711 C213.313,110.977 202.557,109.661 196.858,107.29 C208.702,106.309 216.72,100.926 219.808,93.62 C215.542,96.247 202.283,99.108 194.972,96.382 C194.607,94.662 194.211,93.026 193.809,91.545 C188.241,71.051 169.143,54.538 149.147,56.534 C150.758,55.879 152.395,55.272 154.047,54.717 C156.237,53.928 169.161,51.821 167.129,47.264 C165.407,43.245 149.62,50.286 146.649,51.211 C150.573,49.741 157.063,47.204 157.754,42.686 C151.745,43.51 145.844,46.356 141.286,50.493 C142.934,48.721 144.182,46.561 144.446,44.233 C128.41,54.491 119.042,75.153 111.466,95.213 C105.516,89.434 100.228,84.887 95.502,82.354 C82.228,75.239 66.351,67.803 41.438,58.54 C40.672,66.792 45.513,77.771 59.453,85.061 C56.435,84.653 50.912,85.567 46.501,86.616 C48.297,96.079 54.174,103.867 70.095,107.628 C62.821,108.107 59.055,109.774 55.652,113.336 C58.964,119.914 67.059,127.65 81.592,126.059 C65.417,133.041 74.997,145.964 88.161,144.035 C65.717,167.25 30.324,165.53 10,146.127 C63.057,218.502 178.405,188.923 195.585,119.214 C208.475,119.319 216.036,114.752 220.73,109.711" id="Fill-1" fill="#FFFFFF" sketch:type="MSShapeGroup" mask="url(#mask-2)"></path>
        </g>
    </g>
</svg>